<svg id="svg" version="1.1" xmlns="http://www.w3.org/2000/svg" xmlns:xlink="http://www.w3.org/1999/xlink" width="400" height="400" viewBox="0, 0, 400,400"><g id="svgg"><path id="path0" d="M199.200 59.091 C 198.870 59.216,197.848 59.832,196.928 60.459 C 196.008 61.087,195.161 61.600,195.046 61.600 C 194.930 61.600,193.882 62.165,192.718 62.856 C 190.724 64.038,190.065 64.420,186.600 66.400 C 184.100 67.829,182.661 68.662,179.000 70.800 C 175.339 72.938,173.900 73.771,171.400 75.200 C 170.630 75.640,169.370 76.360,168.600 76.800 C 167.830 77.240,166.570 77.960,165.800 78.400 C 163.300 79.829,161.861 80.662,158.200 82.800 C 154.539 84.938,153.100 85.771,150.600 87.200 C 147.135 89.180,146.476 89.562,144.482 90.744 C 143.318 91.435,142.270 92.000,142.154 92.000 C 142.039 92.000,141.159 92.540,140.200 93.200 C 139.241 93.860,138.361 94.400,138.246 94.400 C 138.130 94.400,137.082 94.965,135.918 95.656 C 133.924 96.838,133.265 97.220,129.800 99.200 C 126.335 101.180,125.676 101.562,123.682 102.744 C 122.518 103.435,121.466 104.000,121.344 104.000 C 121.223 104.000,120.646 104.339,120.062 104.753 C 119.478 105.167,118.325 105.887,117.500 106.353 C 116.675 106.819,115.370 107.560,114.600 108.000 C 113.830 108.440,112.570 109.160,111.800 109.600 C 111.030 110.040,109.770 110.760,109.000 111.200 C 106.500 112.629,105.061 113.462,101.400 115.600 C 97.739 117.738,96.300 118.571,93.800 120.000 C 93.030 120.440,91.770 121.160,91.000 121.600 C 87.446 123.631,86.519 124.159,85.400 124.791 C 84.091 125.530,83.861 126.322,84.800 126.850 C 86.183 127.627,90.689 130.236,91.800 130.902 C 92.460 131.298,93.315 131.728,93.700 131.858 C 94.085 131.987,94.400 132.252,94.400 132.447 C 94.400 132.641,94.583 132.800,94.807 132.800 C 95.031 132.800,96.400 133.520,97.848 134.400 C 99.297 135.280,100.545 136.000,100.623 136.000 C 100.701 136.000,101.718 136.566,102.882 137.259 C 104.047 137.951,105.990 139.061,107.200 139.725 C 108.410 140.388,109.490 141.037,109.600 141.166 C 109.818 141.421,112.856 143.114,114.297 143.783 C 114.790 144.013,115.195 144.335,115.197 144.500 C 115.199 144.665,115.383 144.800,115.607 144.800 C 115.831 144.800,117.200 145.520,118.648 146.400 C 120.097 147.280,121.345 148.000,121.423 148.000 C 121.501 148.000,122.518 148.565,123.682 149.256 C 125.647 150.421,126.797 151.084,129.245 152.462 C 129.770 152.758,130.290 153.090,130.400 153.200 C 130.640 153.440,133.835 155.197,135.097 155.783 C 135.590 156.013,135.995 156.335,135.997 156.500 C 135.999 156.665,136.183 156.800,136.407 156.800 C 136.631 156.800,138.000 157.520,139.448 158.400 C 140.897 159.280,142.145 160.000,142.223 160.000 C 142.301 160.000,143.281 160.540,144.400 161.200 L 146.435 162.400 200.338 162.400 C 231.987 162.400,254.397 162.250,254.620 162.038 C 254.829 161.838,255.675 161.298,256.500 160.838 C 258.422 159.764,259.775 158.985,264.200 156.400 C 267.861 154.262,269.300 153.429,271.800 152.000 C 272.570 151.560,273.830 150.840,274.600 150.400 C 275.370 149.960,276.630 149.240,277.400 148.800 C 279.900 147.371,281.339 146.538,285.000 144.400 C 288.661 142.262,290.100 141.429,292.600 140.000 C 293.370 139.560,294.630 138.840,295.400 138.400 C 296.170 137.960,297.430 137.240,298.200 136.800 C 300.700 135.371,302.139 134.538,305.800 132.400 C 309.741 130.098,311.304 129.194,313.345 128.038 C 316.963 125.987,316.937 126.039,314.900 124.936 C 314.075 124.489,312.725 123.735,311.900 123.262 C 311.075 122.788,309.770 122.040,309.000 121.600 C 308.230 121.160,306.970 120.440,306.200 120.000 C 303.700 118.571,302.261 117.738,298.600 115.600 C 294.939 113.462,293.500 112.629,291.000 111.200 C 287.535 109.220,286.876 108.838,284.882 107.656 C 283.718 106.965,282.670 106.400,282.554 106.400 C 282.439 106.400,281.559 105.860,280.600 105.200 C 279.641 104.540,278.761 104.000,278.646 104.000 C 278.530 104.000,277.482 103.435,276.318 102.744 C 274.324 101.562,273.665 101.180,270.200 99.200 C 266.735 97.220,266.076 96.838,264.082 95.656 C 262.918 94.965,261.870 94.400,261.754 94.400 C 261.639 94.400,260.759 93.860,259.800 93.200 C 258.841 92.540,257.961 92.000,257.846 92.000 C 257.730 92.000,256.682 91.435,255.518 90.744 C 253.524 89.562,252.865 89.180,249.400 87.200 C 245.935 85.220,245.276 84.838,243.282 83.656 C 242.118 82.965,241.066 82.400,240.944 82.400 C 240.823 82.400,240.246 82.061,239.662 81.647 C 239.078 81.233,237.925 80.513,237.100 80.047 C 236.275 79.581,234.970 78.840,234.200 78.400 C 233.430 77.960,232.170 77.240,231.400 76.800 C 230.630 76.360,229.370 75.640,228.600 75.200 C 226.100 73.771,224.661 72.938,221.000 70.800 C 217.339 68.662,215.900 67.829,213.400 66.400 C 212.630 65.960,211.370 65.240,210.600 64.800 C 209.830 64.360,208.570 63.640,207.800 63.200 C 206.342 62.367,205.035 61.613,202.000 59.853 C 200.076 58.738,200.108 58.746,199.200 59.091 M63.260 120.242 C 62.531 121.066,63.000 121.457,63.781 120.676 C 64.121 120.336,64.400 119.954,64.400 119.829 C 64.400 119.409,63.806 119.624,63.260 120.242 M335.600 119.829 C 335.600 120.253,336.836 121.297,337.067 121.067 C 337.192 120.941,337.017 120.560,336.676 120.219 C 336.041 119.584,335.600 119.424,335.600 119.829 M338.400 202.750 C 338.400 243.643,338.288 277.663,338.150 278.350 C 337.990 279.152,338.060 279.600,338.346 279.600 C 338.672 279.600,338.793 259.321,338.798 204.000 C 338.801 162.420,338.713 128.400,338.602 128.400 C 338.491 128.400,338.400 161.858,338.400 202.750 M322.385 139.351 C 321.191 139.986,319.309 141.068,316.482 142.744 C 315.318 143.435,314.301 144.000,314.223 144.000 C 314.145 144.000,312.897 144.720,311.448 145.600 C 310.000 146.480,308.631 147.200,308.407 147.200 C 308.183 147.200,307.999 147.335,307.997 147.500 C 307.995 147.665,307.590 147.987,307.097 148.217 C 305.835 148.803,302.640 150.560,302.400 150.800 C 302.290 150.910,301.770 151.242,301.245 151.538 C 298.797 152.916,297.647 153.579,295.682 154.744 C 294.518 155.435,293.501 156.000,293.423 156.000 C 293.345 156.000,292.097 156.720,290.648 157.600 C 289.200 158.480,287.831 159.200,287.607 159.200 C 287.383 159.200,287.199 159.335,287.197 159.500 C 287.195 159.665,286.790 159.987,286.297 160.217 C 285.035 160.803,281.840 162.560,281.600 162.800 C 281.490 162.910,280.970 163.242,280.445 163.538 C 277.997 164.916,276.847 165.579,274.882 166.744 C 273.718 167.435,272.701 168.000,272.623 168.000 C 272.545 168.000,271.297 168.720,269.848 169.600 C 268.400 170.480,267.031 171.200,266.807 171.200 C 266.583 171.200,266.400 171.359,266.400 171.553 C 266.400 171.748,266.085 172.010,265.700 172.136 C 263.485 172.860,259.728 175.618,258.862 177.155 C 256.699 180.997,255.509 183.067,254.056 185.518 C 253.365 186.682,252.800 187.730,252.800 187.846 C 252.800 187.961,252.260 188.841,251.600 189.800 C 250.940 190.759,250.400 191.639,250.400 191.754 C 250.400 191.870,249.835 192.918,249.144 194.082 C 247.962 196.076,247.580 196.735,245.600 200.200 C 243.620 203.665,243.238 204.324,242.056 206.318 C 241.365 207.482,240.800 208.530,240.800 208.646 C 240.800 208.761,240.260 209.641,239.600 210.600 C 238.940 211.559,238.400 212.439,238.400 212.554 C 238.400 212.670,237.835 213.718,237.144 214.882 C 235.962 216.876,235.580 217.535,233.600 221.000 C 232.171 223.500,231.338 224.939,229.200 228.600 C 227.062 232.261,226.229 233.700,224.800 236.200 C 224.360 236.970,223.640 238.230,223.200 239.000 C 222.760 239.770,222.040 241.030,221.600 241.800 C 220.171 244.300,219.338 245.739,217.200 249.400 C 214.387 254.217,212.850 256.887,211.157 259.900 C 210.694 260.725,210.180 261.580,210.015 261.800 C 209.850 262.020,209.149 263.246,208.458 264.525 L 207.200 266.849 207.200 303.425 C 207.200 326.777,207.340 340.000,207.588 340.000 C 208.037 340.000,209.155 339.382,217.000 334.800 C 220.661 332.662,222.100 331.829,224.600 330.400 C 225.370 329.960,226.630 329.240,227.400 328.800 C 228.170 328.360,229.430 327.640,230.200 327.200 C 232.700 325.771,234.139 324.938,237.800 322.800 C 241.461 320.662,242.900 319.829,245.400 318.400 C 246.170 317.960,247.430 317.240,248.200 316.800 C 248.970 316.360,250.230 315.640,251.000 315.200 C 251.770 314.760,253.075 314.019,253.900 313.553 C 254.725 313.087,255.878 312.367,256.462 311.953 C 257.046 311.539,257.623 311.200,257.744 311.200 C 257.866 311.200,258.918 310.635,260.082 309.944 C 262.076 308.762,262.735 308.380,266.200 306.400 C 269.665 304.420,270.324 304.038,272.318 302.856 C 273.482 302.165,274.530 301.600,274.646 301.600 C 274.761 301.600,275.641 301.060,276.600 300.400 C 277.559 299.740,278.439 299.200,278.554 299.200 C 278.670 299.200,279.718 298.635,280.882 297.944 C 282.876 296.762,283.535 296.380,287.000 294.400 C 289.500 292.971,290.939 292.138,294.600 290.000 C 298.261 287.862,299.700 287.029,302.200 285.600 C 302.970 285.160,304.230 284.440,305.000 284.000 C 305.770 283.560,307.030 282.840,307.800 282.400 C 310.300 280.971,311.739 280.138,315.400 278.000 C 321.369 274.513,321.758 274.291,322.900 273.705 L 324.000 273.141 323.994 206.471 C 323.991 169.802,323.849 139.581,323.679 139.314 C 323.438 138.934,323.152 138.942,322.385 139.351 M157.600 177.320 C 157.600 177.606,157.763 178.011,157.962 178.220 C 158.162 178.429,158.702 179.275,159.162 180.100 C 159.946 181.503,160.494 182.468,162.344 185.700 C 162.753 186.415,163.653 187.953,164.344 189.118 C 165.035 190.282,165.600 191.330,165.600 191.446 C 165.600 191.561,166.140 192.441,166.800 193.400 C 167.460 194.359,168.000 195.239,168.000 195.354 C 168.000 195.470,168.565 196.518,169.256 197.682 C 170.438 199.676,170.820 200.335,172.800 203.800 C 174.780 207.265,175.162 207.924,176.344 209.918 C 177.035 211.082,177.600 212.130,177.600 212.246 C 177.600 212.361,178.140 213.241,178.800 214.200 C 179.460 215.159,180.000 216.039,180.000 216.154 C 180.000 216.270,180.565 217.318,181.256 218.482 C 182.438 220.476,182.820 221.135,184.800 224.600 C 186.229 227.100,187.062 228.539,189.200 232.200 C 191.338 235.861,192.171 237.300,193.600 239.800 C 194.040 240.570,194.760 241.830,195.200 242.600 C 195.640 243.370,196.360 244.630,196.800 245.400 C 197.240 246.170,197.977 247.475,198.438 248.300 C 198.898 249.125,199.417 249.950,199.591 250.133 C 199.901 250.460,201.600 248.945,201.600 248.342 C 201.600 248.173,202.165 247.082,202.856 245.918 C 204.038 243.924,204.420 243.265,206.400 239.800 C 208.380 236.335,208.762 235.676,209.944 233.682 C 210.635 232.518,211.200 231.470,211.200 231.354 C 211.200 231.239,211.740 230.359,212.400 229.400 C 213.060 228.441,213.600 227.561,213.600 227.446 C 213.600 227.330,214.165 226.282,214.856 225.118 C 216.038 223.124,216.420 222.465,218.400 219.000 C 219.829 216.500,220.662 215.061,222.800 211.400 C 224.938 207.739,225.771 206.300,227.200 203.800 C 227.640 203.030,228.360 201.770,228.800 201.000 C 229.240 200.230,229.960 198.970,230.400 198.200 C 231.829 195.700,232.662 194.261,234.800 190.600 C 237.720 185.601,239.309 182.837,240.838 180.100 C 241.298 179.275,241.838 178.429,242.038 178.220 C 243.397 176.794,243.578 176.800,200.000 176.800 C 165.477 176.800,157.600 176.897,157.600 177.320 M252.452 224.180 C 254.294 225.159,257.190 226.644,258.888 227.480 C 262.409 229.213,262.716 229.633,261.601 231.198 C 261.161 231.817,260.800 232.443,260.800 232.590 C 260.800 232.736,260.260 233.641,259.600 234.600 C 258.940 235.559,258.400 236.459,258.400 236.600 C 258.400 236.741,257.860 237.641,257.200 238.600 C 256.540 239.559,256.000 240.517,256.000 240.729 C 256.000 241.764,254.569 241.473,252.396 239.997 C 251.102 239.119,249.936 238.400,249.804 238.400 C 249.672 238.400,248.230 237.500,246.600 236.400 C 244.970 235.300,243.467 234.400,243.261 234.400 C 242.363 234.400,242.511 233.047,243.612 231.180 C 244.265 230.072,244.800 229.101,244.800 229.023 C 244.800 228.945,245.520 227.697,246.400 226.248 C 247.280 224.800,248.000 223.446,248.000 223.241 C 248.000 223.035,248.225 222.776,248.500 222.665 C 248.775 222.554,249.024 222.449,249.052 222.432 C 249.081 222.414,250.611 223.201,252.452 224.180 M278.852 239.380 C 280.694 240.359,283.590 241.844,285.288 242.680 C 288.809 244.413,289.116 244.833,288.001 246.398 C 287.561 247.017,287.200 247.643,287.200 247.790 C 287.200 247.936,286.660 248.841,286.000 249.800 C 285.340 250.759,284.800 251.659,284.800 251.800 C 284.800 251.941,284.260 252.841,283.600 253.800 C 282.940 254.759,282.400 255.717,282.400 255.929 C 282.400 256.743,281.126 256.744,279.694 255.933 C 278.872 255.468,277.390 254.638,276.400 254.089 C 275.410 253.540,273.555 252.486,272.279 251.746 C 271.002 251.006,269.806 250.400,269.621 250.400 C 268.718 250.400,268.981 248.964,270.368 246.318 C 271.209 244.713,272.504 242.230,273.246 240.800 C 274.356 238.662,275.052 237.653,275.452 237.606 C 275.481 237.603,277.011 238.401,278.852 239.380 M305.252 254.580 C 307.094 255.559,309.990 257.044,311.688 257.880 C 315.209 259.613,315.516 260.033,314.401 261.598 C 313.961 262.217,313.600 262.843,313.600 262.990 C 313.600 263.136,313.060 264.041,312.400 265.000 C 311.740 265.959,311.200 266.859,311.200 267.000 C 311.200 267.141,310.660 268.041,310.000 269.000 C 309.340 269.959,308.800 270.917,308.800 271.129 C 308.800 271.943,307.526 271.944,306.094 271.133 C 305.272 270.668,303.790 269.838,302.800 269.289 C 301.810 268.740,299.955 267.686,298.679 266.946 C 297.402 266.206,296.206 265.600,296.021 265.600 C 295.118 265.600,295.381 264.164,296.768 261.518 C 297.609 259.913,298.904 257.430,299.646 256.000 C 300.756 253.862,301.452 252.853,301.852 252.806 C 301.881 252.803,303.411 253.601,305.252 254.580 M61.412 278.517 C 61.241 278.912,61.213 279.347,61.351 279.484 C 61.757 279.890,62.084 279.320,61.897 278.531 C 61.732 277.833,61.710 277.832,61.412 278.517 M62.800 282.229 C 62.800 282.653,64.036 283.697,64.267 283.467 C 64.392 283.341,64.217 282.960,63.876 282.619 C 63.241 281.984,62.800 281.824,62.800 282.229 M336.060 282.642 C 335.331 283.466,335.800 283.857,336.581 283.076 C 336.921 282.736,337.200 282.354,337.200 282.229 C 337.200 281.809,336.606 282.024,336.060 282.642 " stroke="none" fill="#fbfbfb" fill-rule="evenodd"></path><path id="path1" d="M197.200 43.200 C 197.200 43.420,196.922 43.600,196.583 43.600 C 196.244 43.600,195.580 43.960,195.108 44.400 C 194.636 44.840,194.013 45.200,193.725 45.200 C 193.436 45.200,193.200 45.380,193.200 45.600 C 193.200 45.820,192.840 46.000,192.400 46.000 C 191.960 46.000,191.600 46.180,191.600 46.400 C 191.600 46.620,191.322 46.800,190.983 46.800 C 190.644 46.800,189.980 47.160,189.508 47.600 C 189.036 48.040,188.413 48.400,188.125 48.400 C 187.836 48.400,187.600 48.580,187.600 48.800 C 187.600 49.020,187.240 49.200,186.800 49.200 C 186.360 49.200,186.000 49.380,186.000 49.600 C 186.000 49.820,185.680 50.000,185.288 50.000 C 184.897 50.000,184.317 50.360,184.000 50.800 C 183.683 51.240,183.103 51.600,182.712 51.600 C 182.320 51.600,182.000 51.780,182.000 52.000 C 182.000 52.220,181.640 52.400,181.200 52.400 C 180.760 52.400,180.400 52.580,180.400 52.800 C 180.400 53.020,180.080 53.200,179.688 53.200 C 179.297 53.200,178.717 53.560,178.400 54.000 C 178.083 54.440,177.503 54.800,177.112 54.800 C 176.720 54.800,176.400 54.980,176.400 55.200 C 176.400 55.420,176.122 55.600,175.783 55.600 C 175.444 55.600,174.780 55.960,174.308 56.400 C 173.836 56.840,173.213 57.200,172.925 57.200 C 172.636 57.200,172.400 57.380,172.400 57.600 C 172.400 57.820,172.040 58.000,171.600 58.000 C 171.160 58.000,170.800 58.180,170.800 58.400 C 170.800 58.620,170.522 58.800,170.183 58.800 C 169.844 58.800,169.180 59.160,168.708 59.600 C 168.236 60.040,167.613 60.400,167.325 60.400 C 167.036 60.400,166.800 60.580,166.800 60.800 C 166.800 61.020,166.440 61.200,166.000 61.200 C 165.560 61.200,165.200 61.380,165.200 61.600 C 165.200 61.820,164.880 62.000,164.488 62.000 C 164.097 62.000,163.517 62.360,163.200 62.800 C 162.883 63.240,162.303 63.600,161.912 63.600 C 161.520 63.600,161.200 63.780,161.200 64.000 C 161.200 64.220,160.922 64.400,160.583 64.400 C 160.244 64.400,159.580 64.760,159.108 65.200 C 158.636 65.640,158.013 66.000,157.725 66.000 C 157.436 66.000,157.200 66.180,157.200 66.400 C 157.200 66.620,156.840 66.800,156.400 66.800 C 155.960 66.800,155.600 66.980,155.600 67.200 C 155.600 67.420,155.322 67.600,154.983 67.600 C 154.644 67.600,153.980 67.960,153.508 68.400 C 153.036 68.840,152.413 69.200,152.125 69.200 C 151.836 69.200,151.600 69.380,151.600 69.600 C 151.600 69.820,151.240 70.000,150.800 70.000 C 150.360 70.000,150.000 70.180,150.000 70.400 C 150.000 70.620,149.722 70.800,149.383 70.800 C 149.044 70.800,148.380 71.160,147.908 71.600 C 147.436 72.040,146.813 72.400,146.525 72.400 C 146.236 72.400,146.000 72.580,146.000 72.800 C 146.000 73.020,145.640 73.200,145.200 73.200 C 144.760 73.200,144.400 73.380,144.400 73.600 C 144.400 73.820,144.080 74.000,143.688 74.000 C 143.297 74.000,142.717 74.360,142.400 74.800 C 142.083 75.240,141.503 75.600,141.112 75.600 C 140.720 75.600,140.400 75.780,140.400 76.000 C 140.400 76.220,140.122 76.400,139.783 76.400 C 139.444 76.400,138.780 76.760,138.308 77.200 C 137.836 77.640,137.213 78.000,136.925 78.000 C 136.636 78.000,136.400 78.180,136.400 78.400 C 136.400 78.620,136.040 78.800,135.600 78.800 C 135.160 78.800,134.800 78.980,134.800 79.200 C 134.800 79.420,134.522 79.600,134.183 79.600 C 133.844 79.600,133.180 79.960,132.708 80.400 C 132.236 80.840,131.613 81.200,131.325 81.200 C 131.036 81.200,130.800 81.380,130.800 81.600 C 130.800 81.820,130.440 82.000,130.000 82.000 C 129.560 82.000,129.200 82.180,129.200 82.400 C 129.200 82.620,128.922 82.800,128.583 82.800 C 128.244 82.800,127.580 83.160,127.108 83.600 C 126.636 84.040,126.013 84.400,125.725 84.400 C 125.436 84.400,125.200 84.580,125.200 84.800 C 125.200 85.020,124.840 85.200,124.400 85.200 C 123.960 85.200,123.600 85.380,123.600 85.600 C 123.600 85.820,123.280 86.000,122.888 86.000 C 122.497 86.000,121.917 86.360,121.600 86.800 C 121.283 87.240,120.703 87.600,120.312 87.600 C 119.920 87.600,119.600 87.780,119.600 88.000 C 119.600 88.220,119.322 88.400,118.983 88.400 C 118.644 88.400,117.980 88.760,117.508 89.200 C 117.036 89.640,116.413 90.000,116.125 90.000 C 115.836 90.000,115.600 90.180,115.600 90.400 C 115.600 90.620,115.240 90.800,114.800 90.800 C 114.360 90.800,114.000 90.980,114.000 91.200 C 114.000 91.420,113.722 91.600,113.383 91.600 C 113.044 91.600,112.380 91.960,111.908 92.400 C 111.436 92.840,110.813 93.200,110.525 93.200 C 110.236 93.200,110.000 93.380,110.000 93.600 C 110.000 93.820,109.640 94.000,109.200 94.000 C 108.760 94.000,108.400 94.180,108.400 94.400 C 108.400 94.620,108.080 94.800,107.688 94.800 C 107.297 94.800,106.717 95.160,106.400 95.600 C 106.083 96.040,105.503 96.400,105.112 96.400 C 104.720 96.400,104.400 96.580,104.400 96.800 C 104.400 97.020,104.122 97.200,103.783 97.200 C 103.444 97.200,102.780 97.560,102.308 98.000 C 101.836 98.440,101.213 98.800,100.925 98.800 C 100.636 98.800,100.400 98.980,100.400 99.200 C 100.400 99.420,100.040 99.600,99.600 99.600 C 99.160 99.600,98.800 99.780,98.800 100.000 C 98.800 100.220,98.522 100.400,98.183 100.400 C 97.844 100.400,97.180 100.760,96.708 101.200 C 96.236 101.640,95.613 102.000,95.325 102.000 C 95.036 102.000,94.800 102.180,94.800 102.400 C 94.800 102.620,94.440 102.800,94.000 102.800 C 93.560 102.800,93.200 102.980,93.200 103.200 C 93.200 103.420,92.922 103.600,92.583 103.600 C 92.244 103.600,91.580 103.960,91.108 104.400 C 90.636 104.840,90.013 105.200,89.725 105.200 C 89.436 105.200,89.200 105.380,89.200 105.600 C 89.200 105.820,88.840 106.000,88.400 106.000 C 87.960 106.000,87.600 106.180,87.600 106.400 C 87.600 106.620,87.280 106.800,86.888 106.800 C 86.497 106.800,85.917 107.160,85.600 107.600 C 85.283 108.040,84.703 108.400,84.312 108.400 C 83.920 108.400,83.600 108.580,83.600 108.800 C 83.600 109.020,83.322 109.200,82.983 109.200 C 82.644 109.200,81.980 109.560,81.508 110.000 C 81.036 110.440,80.413 110.800,80.125 110.800 C 79.836 110.800,79.600 110.980,79.600 111.200 C 79.600 111.420,79.240 111.600,78.800 111.600 C 78.360 111.600,78.000 111.780,78.000 112.000 C 78.000 112.220,77.722 112.400,77.383 112.400 C 77.044 112.400,76.380 112.760,75.908 113.200 C 75.436 113.640,74.813 114.000,74.525 114.000 C 74.236 114.000,74.000 114.180,74.000 114.400 C 74.000 114.620,73.640 114.800,73.200 114.800 C 72.760 114.800,72.400 114.980,72.400 115.200 C 72.400 115.420,72.122 115.600,71.783 115.600 C 71.444 115.600,70.780 115.960,70.308 116.400 C 69.836 116.840,69.213 117.200,68.925 117.200 C 68.636 117.200,68.400 117.380,68.400 117.600 C 68.400 117.820,68.040 118.000,67.600 118.000 C 67.160 118.000,66.800 118.180,66.800 118.400 C 66.800 118.620,66.525 118.800,66.189 118.800 C 65.396 118.800,62.000 122.196,62.000 122.989 C 62.000 123.325,61.820 123.600,61.600 123.600 C 61.335 123.600,61.200 149.675,61.200 201.024 C 61.200 252.537,61.334 278.364,61.600 278.200 C 61.838 278.053,62.000 278.533,62.000 279.387 C 62.000 280.928,64.902 284.400,66.189 284.400 C 66.525 284.400,66.800 284.580,66.800 284.800 C 66.800 285.020,67.120 285.200,67.512 285.200 C 67.903 285.200,68.483 285.560,68.800 286.000 C 69.117 286.440,69.697 286.800,70.088 286.800 C 70.480 286.800,70.800 286.980,70.800 287.200 C 70.800 287.420,71.160 287.600,71.600 287.600 C 72.040 287.600,72.400 287.780,72.400 288.000 C 72.400 288.220,72.636 288.400,72.925 288.400 C 73.213 288.400,73.836 288.760,74.308 289.200 C 74.780 289.640,75.444 290.000,75.783 290.000 C 76.122 290.000,76.400 290.180,76.400 290.400 C 76.400 290.620,76.760 290.800,77.200 290.800 C 77.640 290.800,78.000 290.980,78.000 291.200 C 78.000 291.420,78.236 291.600,78.525 291.600 C 78.813 291.600,79.436 291.960,79.908 292.400 C 80.380 292.840,81.044 293.200,81.383 293.200 C 81.722 293.200,82.000 293.380,82.000 293.600 C 82.000 293.820,82.320 294.000,82.712 294.000 C 83.103 294.000,83.683 294.360,84.000 294.800 C 84.317 295.240,84.897 295.600,85.288 295.600 C 85.680 295.600,86.000 295.780,86.000 296.000 C 86.000 296.220,86.360 296.400,86.800 296.400 C 87.240 296.400,87.600 296.580,87.600 296.800 C 87.600 297.020,87.920 297.200,88.312 297.200 C 88.703 297.200,89.283 297.560,89.600 298.000 C 89.917 298.440,90.497 298.800,90.888 298.800 C 91.280 298.800,91.600 298.980,91.600 299.200 C 91.600 299.420,91.960 299.600,92.400 299.600 C 92.840 299.600,93.200 299.780,93.200 300.000 C 93.200 300.220,93.436 300.400,93.725 300.400 C 94.013 300.400,94.636 300.760,95.108 301.200 C 95.580 301.640,96.244 302.000,96.583 302.000 C 96.922 302.000,97.200 302.180,97.200 302.400 C 97.200 302.620,97.560 302.800,98.000 302.800 C 98.440 302.800,98.800 302.980,98.800 303.200 C 98.800 303.420,99.036 303.600,99.325 303.600 C 99.613 303.600,100.236 303.960,100.708 304.400 C 101.180 304.840,101.844 305.200,102.183 305.200 C 102.522 305.200,102.800 305.380,102.800 305.600 C 102.800 305.820,103.120 306.000,103.512 306.000 C 103.903 306.000,104.483 306.360,104.800 306.800 C 105.117 307.240,105.697 307.600,106.088 307.600 C 106.480 307.600,106.800 307.780,106.800 308.000 C 106.800 308.220,107.160 308.400,107.600 308.400 C 108.040 308.400,108.400 308.580,108.400 308.800 C 108.400 309.020,108.636 309.200,108.925 309.200 C 109.213 309.200,109.836 309.560,110.308 310.000 C 110.780 310.440,111.444 310.800,111.783 310.800 C 112.122 310.800,112.400 310.980,112.400 311.200 C 112.400 311.420,112.760 311.600,113.200 311.600 C 113.640 311.600,114.000 311.780,114.000 312.000 C 114.000 312.220,114.236 312.400,114.525 312.400 C 114.813 312.400,115.436 312.760,115.908 313.200 C 116.380 313.640,117.044 314.000,117.383 314.000 C 117.722 314.000,118.000 314.180,118.000 314.400 C 118.000 314.620,118.360 314.800,118.800 314.800 C 119.240 314.800,119.600 314.980,119.600 315.200 C 119.600 315.420,119.836 315.600,120.125 315.600 C 120.413 315.600,121.036 315.960,121.508 316.400 C 121.980 316.840,122.644 317.200,122.983 317.200 C 123.322 317.200,123.600 317.380,123.600 317.600 C 123.600 317.820,123.920 318.000,124.312 318.000 C 124.703 318.000,125.283 318.360,125.600 318.800 C 125.917 319.240,126.497 319.600,126.888 319.600 C 127.280 319.600,127.600 319.780,127.600 320.000 C 127.600 320.220,127.960 320.400,128.400 320.400 C 128.840 320.400,129.200 320.580,129.200 320.800 C 129.200 321.020,129.436 321.200,129.725 321.200 C 130.013 321.200,130.636 321.560,131.108 322.000 C 131.580 322.440,132.244 322.800,132.583 322.800 C 132.922 322.800,133.200 322.980,133.200 323.200 C 133.200 323.420,133.560 323.600,134.000 323.600 C 134.440 323.600,134.800 323.780,134.800 324.000 C 134.800 324.220,135.036 324.400,135.325 324.400 C 135.613 324.400,136.236 324.760,136.708 325.200 C 137.180 325.640,137.844 326.000,138.183 326.000 C 138.522 326.000,138.800 326.180,138.800 326.400 C 138.800 326.620,139.160 326.800,139.600 326.800 C 140.040 326.800,140.400 326.980,140.400 327.200 C 140.400 327.420,140.636 327.600,140.925 327.600 C 141.213 327.600,141.836 327.960,142.308 328.400 C 142.780 328.840,143.444 329.200,143.783 329.200 C 144.122 329.200,144.400 329.380,144.400 329.600 C 144.400 329.820,144.720 330.000,145.112 330.000 C 145.503 330.000,146.083 330.360,146.400 330.800 C 146.717 331.240,147.297 331.600,147.688 331.600 C 148.080 331.600,148.400 331.780,148.400 332.000 C 148.400 332.220,148.760 332.400,149.200 332.400 C 149.640 332.400,150.000 332.580,150.000 332.800 C 150.000 333.020,150.236 333.200,150.525 333.200 C 150.813 333.200,151.436 333.560,151.908 334.000 C 152.380 334.440,153.044 334.800,153.383 334.800 C 153.722 334.800,154.000 334.980,154.000 335.200 C 154.000 335.420,154.360 335.600,154.800 335.600 C 155.240 335.600,155.600 335.780,155.600 336.000 C 155.600 336.220,155.836 336.400,156.125 336.400 C 156.413 336.400,157.036 336.760,157.508 337.200 C 157.980 337.640,158.644 338.000,158.983 338.000 C 159.322 338.000,159.600 338.180,159.600 338.400 C 159.600 338.620,159.920 338.800,160.312 338.800 C 160.703 338.800,161.283 339.160,161.600 339.600 C 161.917 340.040,162.497 340.400,162.888 340.400 C 163.280 340.400,163.600 340.580,163.600 340.800 C 163.600 341.020,163.960 341.200,164.400 341.200 C 164.840 341.200,165.200 341.380,165.200 341.600 C 165.200 341.820,165.436 342.000,165.725 342.000 C 166.013 342.000,166.636 342.360,167.108 342.800 C 167.580 343.240,168.244 343.600,168.583 343.600 C 168.922 343.600,169.200 343.780,169.200 344.000 C 169.200 344.220,169.560 344.400,170.000 344.400 C 170.440 344.400,170.800 344.580,170.800 344.800 C 170.800 345.020,171.036 345.200,171.325 345.200 C 171.613 345.200,172.236 345.560,172.708 346.000 C 173.180 346.440,173.844 346.800,174.183 346.800 C 174.522 346.800,174.800 346.980,174.800 347.200 C 174.800 347.420,175.160 347.600,175.600 347.600 C 176.040 347.600,176.400 347.780,176.400 348.000 C 176.400 348.220,176.636 348.400,176.925 348.400 C 177.213 348.400,177.836 348.760,178.308 349.200 C 178.780 349.640,179.444 350.000,179.783 350.000 C 180.122 350.000,180.400 350.180,180.400 350.400 C 180.400 350.620,180.720 350.800,181.112 350.800 C 181.503 350.800,182.083 351.160,182.400 351.600 C 182.717 352.040,183.297 352.400,183.688 352.400 C 184.080 352.400,184.400 352.580,184.400 352.800 C 184.400 353.020,184.760 353.200,185.200 353.200 C 185.640 353.200,186.000 353.380,186.000 353.600 C 186.000 353.820,186.236 354.000,186.525 354.000 C 186.813 354.000,187.436 354.360,187.908 354.800 C 188.380 355.240,189.044 355.600,189.383 355.600 C 189.722 355.600,190.000 355.780,190.000 356.000 C 190.000 356.220,190.360 356.400,190.800 356.400 C 191.240 356.400,191.600 356.580,191.600 356.800 C 191.600 357.020,191.836 357.200,192.125 357.200 C 192.413 357.200,193.036 357.560,193.508 358.000 C 193.980 358.440,194.644 358.800,194.983 358.800 C 195.322 358.800,195.600 358.980,195.600 359.200 C 195.600 359.420,195.960 359.600,196.400 359.600 C 196.840 359.600,197.200 359.780,197.200 360.000 C 197.200 360.229,198.400 360.400,200.000 360.400 C 201.600 360.400,202.800 360.229,202.800 360.000 C 202.800 359.780,203.160 359.600,203.600 359.600 C 204.040 359.600,204.400 359.420,204.400 359.200 C 204.400 358.980,204.678 358.800,205.017 358.800 C 205.356 358.800,206.020 358.440,206.492 358.000 C 206.964 357.560,207.587 357.200,207.875 357.200 C 208.164 357.200,208.400 357.020,208.400 356.800 C 208.400 356.580,208.760 356.400,209.200 356.400 C 209.640 356.400,210.000 356.220,210.000 356.000 C 210.000 355.780,210.320 355.600,210.712 355.600 C 211.103 355.600,211.683 355.240,212.000 354.800 C 212.317 354.360,212.897 354.000,213.288 354.000 C 213.680 354.000,214.000 353.820,214.000 353.600 C 214.000 353.380,214.360 353.200,214.800 353.200 C 215.240 353.200,215.600 353.020,215.600 352.800 C 215.600 352.580,215.920 352.400,216.312 352.400 C 216.703 352.400,217.283 352.040,217.600 351.600 C 217.917 351.160,218.497 350.800,218.888 350.800 C 219.280 350.800,219.600 350.620,219.600 350.400 C 219.600 350.180,219.878 350.000,220.217 350.000 C 220.556 350.000,221.220 349.640,221.692 349.200 C 222.164 348.760,222.787 348.400,223.075 348.400 C 223.364 348.400,223.600 348.220,223.600 348.000 C 223.600 347.780,223.960 347.600,224.400 347.600 C 224.840 347.600,225.200 347.420,225.200 347.200 C 225.200 346.980,225.478 346.800,225.817 346.800 C 226.156 346.800,226.820 346.440,227.292 346.000 C 227.764 345.560,228.387 345.200,228.675 345.200 C 228.964 345.200,229.200 345.020,229.200 344.800 C 229.200 344.580,229.560 344.400,230.000 344.400 C 230.440 344.400,230.800 344.220,230.800 344.000 C 230.800 343.780,231.120 343.600,231.512 343.600 C 231.903 343.600,232.483 343.240,232.800 342.800 C 233.117 342.360,233.697 342.000,234.088 342.000 C 234.480 342.000,234.800 341.820,234.800 341.600 C 234.800 341.380,235.078 341.200,235.417 341.200 C 235.756 341.200,236.420 340.840,236.892 340.400 C 237.364 339.960,237.987 339.600,238.275 339.600 C 238.564 339.600,238.800 339.420,238.800 339.200 C 238.800 338.980,239.160 338.800,239.600 338.800 C 240.040 338.800,240.400 338.620,240.400 338.400 C 240.400 338.180,240.678 338.000,241.017 338.000 C 241.356 338.000,242.020 337.640,242.492 337.200 C 242.964 336.760,243.587 336.400,243.875 336.400 C 244.164 336.400,244.400 336.220,244.400 336.000 C 244.400 335.780,244.760 335.600,245.200 335.600 C 245.640 335.600,246.000 335.420,246.000 335.200 C 246.000 334.980,246.278 334.800,246.617 334.800 C 246.956 334.800,247.620 334.440,248.092 334.000 C 248.564 333.560,249.187 333.200,249.475 333.200 C 249.764 333.200,250.000 333.020,250.000 332.800 C 250.000 332.580,250.360 332.400,250.800 332.400 C 251.240 332.400,251.600 332.220,251.600 332.000 C 251.600 331.780,251.920 331.600,252.312 331.600 C 252.703 331.600,253.283 331.240,253.600 330.800 C 253.917 330.360,254.497 330.000,254.888 330.000 C 255.280 330.000,255.600 329.820,255.600 329.600 C 255.600 329.380,255.878 329.200,256.217 329.200 C 256.556 329.200,257.220 328.840,257.692 328.400 C 258.164 327.960,258.787 327.600,259.075 327.600 C 259.364 327.600,259.600 327.420,259.600 327.200 C 259.600 326.980,259.960 326.800,260.400 326.800 C 260.840 326.800,261.200 326.620,261.200 326.400 C 261.200 326.180,261.478 326.000,261.817 326.000 C 262.156 326.000,262.820 325.640,263.292 325.200 C 263.764 324.760,264.387 324.400,264.675 324.400 C 264.964 324.400,265.200 324.220,265.200 324.000 C 265.200 323.780,265.560 323.600,266.000 323.600 C 266.440 323.600,266.800 323.420,266.800 323.200 C 266.800 322.980,267.078 322.800,267.417 322.800 C 267.756 322.800,268.420 322.440,268.892 322.000 C 269.364 321.560,269.987 321.200,270.275 321.200 C 270.564 321.200,270.800 321.020,270.800 320.800 C 270.800 320.580,271.160 320.400,271.600 320.400 C 272.040 320.400,272.400 320.220,272.400 320.000 C 272.400 319.780,272.720 319.600,273.112 319.600 C 273.503 319.600,274.083 319.240,274.400 318.800 C 274.717 318.360,275.297 318.000,275.688 318.000 C 276.080 318.000,276.400 317.820,276.400 317.600 C 276.400 317.380,276.678 317.200,277.017 317.200 C 277.356 317.200,278.020 316.840,278.492 316.400 C 278.964 315.960,279.587 315.600,279.875 315.600 C 280.164 315.600,280.400 315.420,280.400 315.200 C 280.400 314.980,280.760 314.800,281.200 314.800 C 281.640 314.800,282.000 314.620,282.000 314.400 C 282.000 314.180,282.278 314.000,282.617 314.000 C 282.956 314.000,283.620 313.640,284.092 313.200 C 284.564 312.760,285.187 312.400,285.475 312.400 C 285.764 312.400,286.000 312.220,286.000 312.000 C 286.000 311.780,286.360 311.600,286.800 311.600 C 287.240 311.600,287.600 311.420,287.600 311.200 C 287.600 310.980,287.920 310.800,288.312 310.800 C 288.703 310.800,289.283 310.440,289.600 310.000 C 289.917 309.560,290.497 309.200,290.888 309.200 C 291.280 309.200,291.600 309.020,291.600 308.800 C 291.600 308.580,291.960 308.400,292.400 308.400 C 292.840 308.400,293.200 308.220,293.200 308.000 C 293.200 307.780,293.520 307.600,293.912 307.600 C 294.303 307.600,294.883 307.240,295.200 306.800 C 295.517 306.360,296.097 306.000,296.488 306.000 C 296.880 306.000,297.200 305.820,297.200 305.600 C 297.200 305.380,297.478 305.200,297.817 305.200 C 298.156 305.200,298.820 304.840,299.292 304.400 C 299.764 303.960,300.387 303.600,300.675 303.600 C 300.964 303.600,301.200 303.420,301.200 303.200 C 301.200 302.980,301.560 302.800,302.000 302.800 C 302.440 302.800,302.800 302.620,302.800 302.400 C 302.800 302.180,303.078 302.000,303.417 302.000 C 303.756 302.000,304.420 301.640,304.892 301.200 C 305.364 300.760,305.987 300.400,306.275 300.400 C 306.564 300.400,306.800 300.220,306.800 300.000 C 306.800 299.780,307.160 299.600,307.600 299.600 C 308.040 299.600,308.400 299.420,308.400 299.200 C 308.400 298.980,308.720 298.800,309.112 298.800 C 309.503 298.800,310.083 298.440,310.400 298.000 C 310.717 297.560,311.297 297.200,311.688 297.200 C 312.080 297.200,312.400 297.020,312.400 296.800 C 312.400 296.580,312.678 296.400,313.017 296.400 C 313.356 296.400,314.020 296.040,314.492 295.600 C 314.964 295.160,315.587 294.800,315.875 294.800 C 316.164 294.800,316.400 294.620,316.400 294.400 C 316.400 294.180,316.760 294.000,317.200 294.000 C 317.640 294.000,318.000 293.820,318.000 293.600 C 318.000 293.380,318.278 293.200,318.617 293.200 C 318.956 293.200,319.620 292.840,320.092 292.400 C 320.564 291.960,321.187 291.600,321.475 291.600 C 321.764 291.600,322.000 291.420,322.000 291.200 C 322.000 290.980,322.360 290.800,322.800 290.800 C 323.240 290.800,323.600 290.620,323.600 290.400 C 323.600 290.180,323.878 290.000,324.217 290.000 C 324.556 290.000,325.220 289.640,325.692 289.200 C 326.164 288.760,326.787 288.400,327.075 288.400 C 327.364 288.400,327.600 288.220,327.600 288.000 C 327.600 287.780,327.960 287.600,328.400 287.600 C 328.840 287.600,329.200 287.420,329.200 287.200 C 329.200 286.980,329.520 286.800,329.912 286.800 C 330.303 286.800,330.883 286.440,331.200 286.000 C 331.517 285.560,332.097 285.200,332.488 285.200 C 332.880 285.200,333.200 285.020,333.200 284.800 C 333.200 284.580,333.475 284.400,333.811 284.400 C 335.098 284.400,338.000 280.928,338.000 279.387 C 338.000 278.598,338.135 278.036,338.300 278.138 C 338.465 278.240,338.600 243.511,338.600 200.962 C 338.600 158.413,338.465 123.600,338.300 123.600 C 338.135 123.600,338.000 123.325,338.000 122.989 C 338.000 122.196,334.604 118.800,333.811 118.800 C 333.475 118.800,333.200 118.620,333.200 118.400 C 333.200 118.180,332.840 118.000,332.400 118.000 C 331.960 118.000,331.600 117.820,331.600 117.600 C 331.600 117.380,331.364 117.200,331.075 117.200 C 330.787 117.200,330.164 116.840,329.692 116.400 C 329.220 115.960,328.556 115.600,328.217 115.600 C 327.878 115.600,327.600 115.420,327.600 115.200 C 327.600 114.980,327.240 114.800,326.800 114.800 C 326.360 114.800,326.000 114.620,326.000 114.400 C 326.000 114.180,325.764 114.000,325.475 114.000 C 325.187 114.000,324.564 113.640,324.092 113.200 C 323.620 112.760,322.956 112.400,322.617 112.400 C 322.278 112.400,322.000 112.220,322.000 112.000 C 322.000 111.780,321.640 111.600,321.200 111.600 C 320.760 111.600,320.400 111.420,320.400 111.200 C 320.400 110.980,320.164 110.800,319.875 110.800 C 319.587 110.800,318.964 110.440,318.492 110.000 C 318.020 109.560,317.356 109.200,317.017 109.200 C 316.678 109.200,316.400 109.020,316.400 108.800 C 316.400 108.580,316.080 108.400,315.688 108.400 C 315.297 108.400,314.717 108.040,314.400 107.600 C 314.083 107.160,313.503 106.800,313.112 106.800 C 312.720 106.800,312.400 106.620,312.400 106.400 C 312.400 106.180,312.040 106.000,311.600 106.000 C 311.160 106.000,310.800 105.820,310.800 105.600 C 310.800 105.380,310.564 105.200,310.275 105.200 C 309.987 105.200,309.364 104.840,308.892 104.400 C 308.420 103.960,307.756 103.600,307.417 103.600 C 307.078 103.600,306.800 103.420,306.800 103.200 C 306.800 102.980,306.440 102.800,306.000 102.800 C 305.560 102.800,305.200 102.620,305.200 102.400 C 305.200 102.180,304.964 102.000,304.675 102.000 C 304.387 102.000,303.764 101.640,303.292 101.200 C 302.820 100.760,302.156 100.400,301.817 100.400 C 301.478 100.400,301.200 100.220,301.200 100.000 C 301.200 99.780,300.880 99.600,300.488 99.600 C 300.097 99.600,299.517 99.240,299.200 98.800 C 298.883 98.360,298.303 98.000,297.912 98.000 C 297.520 98.000,297.200 97.820,297.200 97.600 C 297.200 97.380,296.840 97.200,296.400 97.200 C 295.960 97.200,295.600 97.020,295.600 96.800 C 295.600 96.580,295.280 96.400,294.888 96.400 C 294.497 96.400,293.917 96.040,293.600 95.600 C 293.283 95.160,292.703 94.800,292.312 94.800 C 291.920 94.800,291.600 94.620,291.600 94.400 C 291.600 94.180,291.240 94.000,290.800 94.000 C 290.360 94.000,290.000 93.820,290.000 93.600 C 290.000 93.380,289.764 93.200,289.475 93.200 C 289.187 93.200,288.564 92.840,288.092 92.400 C 287.620 91.960,286.956 91.600,286.617 91.600 C 286.278 91.600,286.000 91.420,286.000 91.200 C 286.000 90.980,285.640 90.800,285.200 90.800 C 284.760 90.800,284.400 90.620,284.400 90.400 C 284.400 90.180,284.164 90.000,283.875 90.000 C 283.587 90.000,282.964 89.640,282.492 89.200 C 282.020 88.760,281.356 88.400,281.017 88.400 C 280.678 88.400,280.400 88.220,280.400 88.000 C 280.400 87.780,280.080 87.600,279.688 87.600 C 279.297 87.600,278.717 87.240,278.400 86.800 C 278.083 86.360,277.503 86.000,277.112 86.000 C 276.720 86.000,276.400 85.820,276.400 85.600 C 276.400 85.380,276.040 85.200,275.600 85.200 C 275.160 85.200,274.800 85.020,274.800 84.800 C 274.800 84.580,274.564 84.400,274.275 84.400 C 273.987 84.400,273.364 84.040,272.892 83.600 C 272.420 83.160,271.756 82.800,271.417 82.800 C 271.078 82.800,270.800 82.620,270.800 82.400 C 270.800 82.180,270.440 82.000,270.000 82.000 C 269.560 82.000,269.200 81.820,269.200 81.600 C 269.200 81.380,268.964 81.200,268.675 81.200 C 268.387 81.200,267.764 80.840,267.292 80.400 C 266.820 79.960,266.156 79.600,265.817 79.600 C 265.478 79.600,265.200 79.420,265.200 79.200 C 265.200 78.980,264.840 78.800,264.400 78.800 C 263.960 78.800,263.600 78.620,263.600 78.400 C 263.600 78.180,263.364 78.000,263.075 78.000 C 262.787 78.000,262.164 77.640,261.692 77.200 C 261.220 76.760,260.556 76.400,260.217 76.400 C 259.878 76.400,259.600 76.220,259.600 76.000 C 259.600 75.780,259.280 75.600,258.888 75.600 C 258.497 75.600,257.917 75.240,257.600 74.800 C 257.283 74.360,256.703 74.000,256.312 74.000 C 255.920 74.000,255.600 73.820,255.600 73.600 C 255.600 73.380,255.240 73.200,254.800 73.200 C 254.360 73.200,254.000 73.020,254.000 72.800 C 254.000 72.580,253.764 72.400,253.475 72.400 C 253.187 72.400,252.564 72.040,252.092 71.600 C 251.620 71.160,250.956 70.800,250.617 70.800 C 250.278 70.800,250.000 70.620,250.000 70.400 C 250.000 70.180,249.640 70.000,249.200 70.000 C 248.760 70.000,248.400 69.820,248.400 69.600 C 248.400 69.380,248.164 69.200,247.875 69.200 C 247.587 69.200,246.964 68.840,246.492 68.400 C 246.020 67.960,245.356 67.600,245.017 67.600 C 244.678 67.600,244.400 67.420,244.400 67.200 C 244.400 66.980,244.040 66.800,243.600 66.800 C 243.160 66.800,242.800 66.620,242.800 66.400 C 242.800 66.180,242.564 66.000,242.275 66.000 C 241.987 66.000,241.364 65.640,240.892 65.200 C 240.420 64.760,239.756 64.400,239.417 64.400 C 239.078 64.400,238.800 64.220,238.800 64.000 C 238.800 63.780,238.480 63.600,238.088 63.600 C 237.697 63.600,237.117 63.240,236.800 62.800 C 236.483 62.360,235.903 62.000,235.512 62.000 C 235.120 62.000,234.800 61.820,234.800 61.600 C 234.800 61.380,234.440 61.200,234.000 61.200 C 233.560 61.200,233.200 61.020,233.200 60.800 C 233.200 60.580,232.964 60.400,232.675 60.400 C 232.387 60.400,231.764 60.040,231.292 59.600 C 230.820 59.160,230.156 58.800,229.817 58.800 C 229.478 58.800,229.200 58.620,229.200 58.400 C 229.200 58.180,228.840 58.000,228.400 58.000 C 227.960 58.000,227.600 57.820,227.600 57.600 C 227.600 57.380,227.364 57.200,227.075 57.200 C 226.787 57.200,226.164 56.840,225.692 56.400 C 225.220 55.960,224.556 55.600,224.217 55.600 C 223.878 55.600,223.600 55.420,223.600 55.200 C 223.600 54.980,223.240 54.800,222.800 54.800 C 222.360 54.800,222.000 54.620,222.000 54.400 C 222.000 54.180,221.764 54.000,221.475 54.000 C 221.187 54.000,220.564 53.640,220.092 53.200 C 219.620 52.760,218.956 52.400,218.617 52.400 C 218.278 52.400,218.000 52.220,218.000 52.000 C 218.000 51.780,217.680 51.600,217.288 51.600 C 216.897 51.600,216.317 51.240,216.000 50.800 C 215.683 50.360,215.103 50.000,214.712 50.000 C 214.320 50.000,214.000 49.820,214.000 49.600 C 214.000 49.380,213.640 49.200,213.200 49.200 C 212.760 49.200,212.400 49.020,212.400 48.800 C 212.400 48.580,212.164 48.400,211.875 48.400 C 211.587 48.400,210.964 48.040,210.492 47.600 C 210.020 47.160,209.356 46.800,209.017 46.800 C 208.678 46.800,208.400 46.620,208.400 46.400 C 208.400 46.180,208.040 46.000,207.600 46.000 C 207.160 46.000,206.800 45.820,206.800 45.600 C 206.800 45.380,206.564 45.200,206.275 45.200 C 205.987 45.200,205.364 44.840,204.892 44.400 C 204.420 43.960,203.756 43.600,203.417 43.600 C 203.078 43.600,202.800 43.420,202.800 43.200 C 202.800 42.971,201.600 42.800,200.000 42.800 C 198.400 42.800,197.200 42.971,197.200 43.200 M202.000 59.853 C 205.035 61.613,206.342 62.367,207.800 63.200 C 208.570 63.640,209.830 64.360,210.600 64.800 C 211.370 65.240,212.630 65.960,213.400 66.400 C 215.900 67.829,217.339 68.662,221.000 70.800 C 224.661 72.938,226.100 73.771,228.600 75.200 C 229.370 75.640,230.630 76.360,231.400 76.800 C 232.170 77.240,233.430 77.960,234.200 78.400 C 234.970 78.840,236.275 79.581,237.100 80.047 C 237.925 80.513,239.078 81.233,239.662 81.647 C 240.246 82.061,240.823 82.400,240.944 82.400 C 241.066 82.400,242.118 82.965,243.282 83.656 C 245.276 84.838,245.935 85.220,249.400 87.200 C 252.865 89.180,253.524 89.562,255.518 90.744 C 256.682 91.435,257.730 92.000,257.846 92.000 C 257.961 92.000,258.841 92.540,259.800 93.200 C 260.759 93.860,261.639 94.400,261.754 94.400 C 261.870 94.400,262.918 94.965,264.082 95.656 C 266.076 96.838,266.735 97.220,270.200 99.200 C 273.665 101.180,274.324 101.562,276.318 102.744 C 277.482 103.435,278.530 104.000,278.646 104.000 C 278.761 104.000,279.641 104.540,280.600 105.200 C 281.559 105.860,282.439 106.400,282.554 106.400 C 282.670 106.400,283.718 106.965,284.882 107.656 C 286.876 108.838,287.535 109.220,291.000 111.200 C 293.500 112.629,294.939 113.462,298.600 115.600 C 302.261 117.738,303.700 118.571,306.200 120.000 C 306.970 120.440,308.230 121.160,309.000 121.600 C 309.770 122.040,311.075 122.788,311.900 123.262 C 312.725 123.735,314.075 124.489,314.900 124.936 C 316.937 126.039,316.963 125.987,313.345 128.038 C 311.304 129.194,309.741 130.098,305.800 132.400 C 302.139 134.538,300.700 135.371,298.200 136.800 C 297.430 137.240,296.170 137.960,295.400 138.400 C 294.630 138.840,293.370 139.560,292.600 140.000 C 290.100 141.429,288.661 142.262,285.000 144.400 C 281.339 146.538,279.900 147.371,277.400 148.800 C 276.630 149.240,275.370 149.960,274.600 150.400 C 273.830 150.840,272.570 151.560,271.800 152.000 C 269.300 153.429,267.861 154.262,264.200 156.400 C 259.775 158.985,258.422 159.764,256.500 160.838 C 255.675 161.298,254.829 161.838,254.620 162.038 C 254.397 162.250,231.987 162.400,200.338 162.400 L 146.435 162.400 144.400 161.200 C 143.281 160.540,142.301 160.000,142.223 160.000 C 142.145 160.000,140.897 159.280,139.448 158.400 C 138.000 157.520,136.631 156.800,136.407 156.800 C 136.183 156.800,135.999 156.665,135.997 156.500 C 135.995 156.335,135.590 156.013,135.097 155.783 C 133.835 155.197,130.640 153.440,130.400 153.200 C 130.290 153.090,129.770 152.758,129.245 152.462 C 126.797 151.084,125.647 150.421,123.682 149.256 C 122.518 148.565,121.501 148.000,121.423 148.000 C 121.345 148.000,120.097 147.280,118.648 146.400 C 117.200 145.520,115.831 144.800,115.607 144.800 C 115.383 144.800,115.199 144.665,115.197 144.500 C 115.195 144.335,114.790 144.013,114.297 143.783 C 112.856 143.114,109.818 141.421,109.600 141.166 C 109.490 141.037,108.410 140.388,107.200 139.725 C 105.990 139.061,104.047 137.951,102.882 137.259 C 101.718 136.566,100.701 136.000,100.623 136.000 C 100.545 136.000,99.297 135.280,97.848 134.400 C 96.400 133.520,95.031 132.800,94.807 132.800 C 94.583 132.800,94.400 132.641,94.400 132.447 C 94.400 132.252,94.085 131.987,93.700 131.858 C 93.315 131.728,92.460 131.298,91.800 130.902 C 90.689 130.236,86.183 127.627,84.800 126.850 C 83.861 126.322,84.091 125.530,85.400 124.791 C 86.519 124.159,87.446 123.631,91.000 121.600 C 91.770 121.160,93.030 120.440,93.800 120.000 C 96.300 118.571,97.739 117.738,101.400 115.600 C 105.061 113.462,106.500 112.629,109.000 111.200 C 109.770 110.760,111.030 110.040,111.800 109.600 C 112.570 109.160,113.830 108.440,114.600 108.000 C 115.370 107.560,116.675 106.819,117.500 106.353 C 118.325 105.887,119.478 105.167,120.062 104.753 C 120.646 104.339,121.223 104.000,121.344 104.000 C 121.466 104.000,122.518 103.435,123.682 102.744 C 125.676 101.562,126.335 101.180,129.800 99.200 C 133.265 97.220,133.924 96.838,135.918 95.656 C 137.082 94.965,138.130 94.400,138.246 94.400 C 138.361 94.400,139.241 93.860,140.200 93.200 C 141.159 92.540,142.039 92.000,142.154 92.000 C 142.270 92.000,143.318 91.435,144.482 90.744 C 146.476 89.562,147.135 89.180,150.600 87.200 C 153.100 85.771,154.539 84.938,158.200 82.800 C 161.861 80.662,163.300 79.829,165.800 78.400 C 166.570 77.960,167.830 77.240,168.600 76.800 C 169.370 76.360,170.630 75.640,171.400 75.200 C 173.900 73.771,175.339 72.938,179.000 70.800 C 182.661 68.662,184.100 67.829,186.600 66.400 C 190.065 64.420,190.724 64.038,192.718 62.856 C 193.882 62.165,194.930 61.600,195.046 61.600 C 195.161 61.600,196.008 61.087,196.928 60.459 C 198.426 59.437,199.415 58.915,200.000 58.836 C 200.110 58.822,201.010 59.279,202.000 59.853 M323.994 206.471 L 324.000 273.141 322.900 273.705 C 321.758 274.291,321.369 274.513,315.400 278.000 C 311.739 280.138,310.300 280.971,307.800 282.400 C 307.030 282.840,305.770 283.560,305.000 284.000 C 304.230 284.440,302.970 285.160,302.200 285.600 C 299.700 287.029,298.261 287.862,294.600 290.000 C 290.939 292.138,289.500 292.971,287.000 294.400 C 283.535 296.380,282.876 296.762,280.882 297.944 C 279.718 298.635,278.670 299.200,278.554 299.200 C 278.439 299.200,277.559 299.740,276.600 300.400 C 275.641 301.060,274.761 301.600,274.646 301.600 C 274.530 301.600,273.482 302.165,272.318 302.856 C 270.324 304.038,269.665 304.420,266.200 306.400 C 262.735 308.380,262.076 308.762,260.082 309.944 C 258.918 310.635,257.866 311.200,257.744 311.200 C 257.623 311.200,257.046 311.539,256.462 311.953 C 255.878 312.367,254.725 313.087,253.900 313.553 C 253.075 314.019,251.770 314.760,251.000 315.200 C 250.230 315.640,248.970 316.360,248.200 316.800 C 247.430 317.240,246.170 317.960,245.400 318.400 C 242.900 319.829,241.461 320.662,237.800 322.800 C 234.139 324.938,232.700 325.771,230.200 327.200 C 229.430 327.640,228.170 328.360,227.400 328.800 C 226.630 329.240,225.370 329.960,224.600 330.400 C 222.100 331.829,220.661 332.662,217.000 334.800 C 209.155 339.382,208.037 340.000,207.588 340.000 C 207.340 340.000,207.200 326.777,207.200 303.425 L 207.200 266.849 208.458 264.525 C 209.149 263.246,209.850 262.020,210.015 261.800 C 210.180 261.580,210.694 260.725,211.157 259.900 C 212.850 256.887,214.387 254.217,217.200 249.400 C 219.338 245.739,220.171 244.300,221.600 241.800 C 222.040 241.030,222.760 239.770,223.200 239.000 C 223.640 238.230,224.360 236.970,224.800 236.200 C 226.229 233.700,227.062 232.261,229.200 228.600 C 231.338 224.939,232.171 223.500,233.600 221.000 C 235.580 217.535,235.962 216.876,237.144 214.882 C 237.835 213.718,238.400 212.670,238.400 212.554 C 238.400 212.439,238.940 211.559,239.600 210.600 C 240.260 209.641,240.800 208.761,240.800 208.646 C 240.800 208.530,241.365 207.482,242.056 206.318 C 243.238 204.324,243.620 203.665,245.600 200.200 C 247.580 196.735,247.962 196.076,249.144 194.082 C 249.835 192.918,250.400 191.870,250.400 191.754 C 250.400 191.639,250.940 190.759,251.600 189.800 C 252.260 188.841,252.800 187.961,252.800 187.846 C 252.800 187.730,253.365 186.682,254.056 185.518 C 255.509 183.067,256.699 180.997,258.862 177.155 C 259.728 175.618,263.485 172.860,265.700 172.136 C 266.085 172.010,266.400 171.748,266.400 171.553 C 266.400 171.359,266.583 171.200,266.807 171.200 C 267.031 171.200,268.400 170.480,269.848 169.600 C 271.297 168.720,272.545 168.000,272.623 168.000 C 272.701 168.000,273.718 167.435,274.882 166.744 C 276.847 165.579,277.997 164.916,280.445 163.538 C 280.970 163.242,281.490 162.910,281.600 162.800 C 281.840 162.560,285.035 160.803,286.297 160.217 C 286.790 159.987,287.195 159.665,287.197 159.500 C 287.199 159.335,287.383 159.200,287.607 159.200 C 287.831 159.200,289.200 158.480,290.648 157.600 C 292.097 156.720,293.345 156.000,293.423 156.000 C 293.501 156.000,294.518 155.435,295.682 154.744 C 297.647 153.579,298.797 152.916,301.245 151.538 C 301.770 151.242,302.290 150.910,302.400 150.800 C 302.640 150.560,305.835 148.803,307.097 148.217 C 307.590 147.987,307.995 147.665,307.997 147.500 C 307.999 147.335,308.183 147.200,308.407 147.200 C 308.631 147.200,310.000 146.480,311.448 145.600 C 312.897 144.720,314.145 144.000,314.223 144.000 C 314.301 144.000,315.318 143.435,316.482 142.744 C 322.950 138.909,323.312 138.736,323.679 139.314 C 323.849 139.581,323.991 169.802,323.994 206.471 M242.400 177.320 C 242.400 177.606,242.237 178.011,242.038 178.220 C 241.838 178.429,241.298 179.275,240.838 180.100 C 239.309 182.837,237.720 185.601,234.800 190.600 C 232.662 194.261,231.829 195.700,230.400 198.200 C 229.960 198.970,229.240 200.230,228.800 201.000 C 228.360 201.770,227.640 203.030,227.200 203.800 C 225.771 206.300,224.938 207.739,222.800 211.400 C 220.662 215.061,219.829 216.500,218.400 219.000 C 216.420 222.465,216.038 223.124,214.856 225.118 C 214.165 226.282,213.600 227.330,213.600 227.446 C 213.600 227.561,213.060 228.441,212.400 229.400 C 211.740 230.359,211.200 231.239,211.200 231.354 C 211.200 231.470,210.635 232.518,209.944 233.682 C 208.762 235.676,208.380 236.335,206.400 239.800 C 204.420 243.265,204.038 243.924,202.856 245.918 C 202.165 247.082,201.600 248.173,201.600 248.342 C 201.600 248.945,199.901 250.460,199.591 250.133 C 199.417 249.950,198.898 249.125,198.438 248.300 C 197.977 247.475,197.240 246.170,196.800 245.400 C 196.360 244.630,195.640 243.370,195.200 242.600 C 194.760 241.830,194.040 240.570,193.600 239.800 C 192.171 237.300,191.338 235.861,189.200 232.200 C 187.062 228.539,186.229 227.100,184.800 224.600 C 182.820 221.135,182.438 220.476,181.256 218.482 C 180.565 217.318,180.000 216.270,180.000 216.154 C 180.000 216.039,179.460 215.159,178.800 214.200 C 178.140 213.241,177.600 212.361,177.600 212.246 C 177.600 212.130,177.035 211.082,176.344 209.918 C 175.162 207.924,174.780 207.265,172.800 203.800 C 170.820 200.335,170.438 199.676,169.256 197.682 C 168.565 196.518,168.000 195.470,168.000 195.354 C 168.000 195.239,167.460 194.359,166.800 193.400 C 166.140 192.441,165.600 191.561,165.600 191.446 C 165.600 191.330,165.035 190.282,164.344 189.118 C 163.653 187.953,162.753 186.415,162.344 185.700 C 160.494 182.468,159.946 181.503,159.162 180.100 C 158.702 179.275,158.162 178.429,157.962 178.220 C 156.603 176.794,156.422 176.800,200.000 176.800 C 234.523 176.800,242.400 176.897,242.400 177.320 M248.500 222.665 C 248.225 222.776,248.000 223.035,248.000 223.241 C 248.000 223.446,247.280 224.800,246.400 226.248 C 245.520 227.697,244.800 228.945,244.800 229.023 C 244.800 229.101,244.265 230.072,243.612 231.180 C 242.511 233.047,242.363 234.400,243.261 234.400 C 243.467 234.400,244.970 235.300,246.600 236.400 C 248.230 237.500,249.672 238.400,249.804 238.400 C 249.936 238.400,251.102 239.119,252.396 239.997 C 254.569 241.473,256.000 241.764,256.000 240.729 C 256.000 240.517,256.540 239.559,257.200 238.600 C 257.860 237.641,258.400 236.741,258.400 236.600 C 258.400 236.459,258.940 235.559,259.600 234.600 C 260.260 233.641,260.800 232.736,260.800 232.590 C 260.800 232.443,261.161 231.817,261.601 231.198 C 262.716 229.633,262.409 229.213,258.888 227.480 C 257.190 226.644,254.294 225.159,252.452 224.180 C 250.611 223.201,249.081 222.414,249.052 222.432 C 249.024 222.449,248.775 222.554,248.500 222.665 M274.998 237.906 C 274.776 238.068,273.988 239.370,273.246 240.800 C 272.504 242.230,271.209 244.713,270.368 246.318 C 268.981 248.964,268.718 250.400,269.621 250.400 C 269.806 250.400,271.002 251.006,272.279 251.746 C 273.555 252.486,275.410 253.540,276.400 254.089 C 277.390 254.638,278.872 255.468,279.694 255.933 C 281.126 256.744,282.400 256.743,282.400 255.929 C 282.400 255.717,282.940 254.759,283.600 253.800 C 284.260 252.841,284.800 251.941,284.800 251.800 C 284.800 251.659,285.340 250.759,286.000 249.800 C 286.660 248.841,287.200 247.936,287.200 247.790 C 287.200 247.643,287.561 247.017,288.001 246.398 C 289.116 244.833,288.809 244.413,285.288 242.680 C 283.590 241.844,280.694 240.359,278.852 239.380 C 277.011 238.401,275.481 237.603,275.452 237.606 C 275.424 237.609,275.219 237.744,274.998 237.906 M301.398 253.106 C 301.176 253.268,300.388 254.570,299.646 256.000 C 298.904 257.430,297.609 259.913,296.768 261.518 C 295.381 264.164,295.118 265.600,296.021 265.600 C 296.206 265.600,297.402 266.206,298.679 266.946 C 299.955 267.686,301.810 268.740,302.800 269.289 C 303.790 269.838,305.272 270.668,306.094 271.133 C 307.526 271.944,308.800 271.943,308.800 271.129 C 308.800 270.917,309.340 269.959,310.000 269.000 C 310.660 268.041,311.200 267.141,311.200 267.000 C 311.200 266.859,311.740 265.959,312.400 265.000 C 313.060 264.041,313.600 263.136,313.600 262.990 C 313.600 262.843,313.961 262.217,314.401 261.598 C 315.516 260.033,315.209 259.613,311.688 257.880 C 309.990 257.044,307.094 255.559,305.252 254.580 C 303.411 253.601,301.881 252.803,301.852 252.806 C 301.824 252.809,301.619 252.944,301.398 253.106 " stroke="none" fill="#6c6c74" fill-rule="evenodd"></path></g></svg>